<svg xmlns="http://www.w3.org/2000/svg" viewBox="0 0 420.27 533.33">
  <path d="M210.13 0L0 22.4v386.13l210.13 124.8 210.14-124.8V22.4L212.27 0h-2.14zm0 501.33L26.67 392.53V234.67l182.4 108.8v19.2L84.27
    288v19.2l125.86 75.73v20.27L84.27 328.53v19.2l125.86 74.67 126.94-75.73V265.6l56.53-34.13v161.06l-183.47 108.8zM342.4 241.07l-23.47
    13.86-109.86-65.06v19.2l93.86 56.53h-1.06l-2.14 1.07-13.86 7.46L208 228.27v19.2l61.87 36.26-14.94 9.6-45.86-27.73v19.2L240 302.93l-30.93
    18.14L27.73 213.33l181.34-108.8L392.53 211.2l-50.13 29.87zM209.07 83.2L26.67 192V46.93l183.46-19.2 183.47 19.2V192L209.07 83.2z"/>
</svg>
